<svg width="200" height="437" viewBox="0 0 150 410" fill="none" xmlns="http://www.w3.org/2000/svg">
<path fill-rule="evenodd" clip-rule="evenodd" d="M75 127.5C83.2843 127.5 90 120.784 90 112.5C90 104.216 83.2843 97.5 75 97.5C66.7157 97.5 60 104.216 60 112.5C60 120.784 66.7157 127.5 75 127.5ZM75 142.5C91.5685 142.5 105 129.069 105 112.5C105 95.9315 91.5685 82.5 75 82.5C58.4315 82.5 45 95.9315 45 112.5C45 129.069 58.4315 142.5 75 142.5Z" fill="black"/>
<path fill-rule="evenodd" clip-rule="evenodd" d="M75 7.5C79.1421 7.5 82.5 10.8579 82.5 15V67.5C82.5 71.6421 79.1421 75 75 75C70.8579 75 67.5 71.6421 67.5 67.5V15C67.5 10.8579 70.8579 7.5 75 7.5Z" fill="black"/>
<path d="M126.449 258.613C118.29 265.412 109.771 268.971 98.9662 269.806L63.3132 169.977C62.2677 167.05 59.5247 165.071 56.417 165.002C53.3092 164.933 50.4809 166.788 49.3062 169.666L11.8062 261.541C10.7855 264.042 11.1883 266.898 12.8609 269.019L12.873 269.034L12.8861 269.051L12.895 269.062C12.9015 269.07 12.9083 269.079 12.9154 269.087C12.9364 269.114 12.9601 269.143 12.9866 269.175C13.0396 269.24 13.1039 269.316 13.1796 269.405C13.331 269.581 13.5282 269.804 13.7731 270.065C14.2628 270.588 14.9435 271.268 15.8293 272.05C17.6019 273.614 20.1941 275.583 23.7116 277.513C30.7925 281.398 41.4073 285 56.2501 285C60.3922 285 63.7501 281.642 63.7501 277.5C63.7501 273.358 60.3922 270 56.2501 270C43.9428 270 35.8077 267.04 30.9261 264.362C29.64 263.656 28.5641 262.962 27.6849 262.331L55.783 193.491L86.687 280.023C87.7531 283.007 90.5805 285 93.7501 285C110.389 285 123.755 280.383 136.051 270.137C139.234 267.485 139.663 262.756 137.012 259.574C134.36 256.392 129.631 255.962 126.449 258.613Z" fill="black"/>
<path d="M86.25 363.75C86.25 369.963 81.2132 375 75 375C68.7868 375 63.75 369.963 63.75 363.75C63.75 357.537 68.7868 352.5 75 352.5C81.2132 352.5 86.25 357.537 86.25 363.75Z" fill="black"/>
<path fill-rule="evenodd" clip-rule="evenodd" d="M30 345C34.1421 345 37.5 348.358 37.5 352.5V390H112.5V352.5C112.5 348.358 115.858 345 120 345C124.142 345 127.5 348.358 127.5 352.5V397.5C127.5 401.642 124.142 405 120 405H30C25.8579 405 22.5 401.642 22.5 397.5V352.5C22.5 348.358 25.8579 345 30 345Z" fill="black"/>
</svg>
