<svg width="150" height="200" viewBox="0 0 150 200" fill="none" xmlns="http://www.w3.org/2000/svg">
<g clip-path="url(#clip0_1_16)">
<path d="M0 0H128L150 23V200H0V0Z" fill="#F2F2F2"/>
<rect x="16" y="20" width="100" height="15" rx="4" fill="#797979"/>
<rect x="16" y="45" width="83" height="10" rx="4" fill="#AFAFAF"/>
<path d="M128 0L150 23H128V0Z" fill="#AFAFAF"/>
<rect x="16" y="60" width="106" height="10" rx="4" fill="#AFAFAF"/>
<rect x="16" y="75" width="55" height="10" rx="4" fill="#AFAFAF"/>
<rect x="16" y="100" width="114" height="10" rx="4" fill="#AFAFAF"/>
<rect x="16" y="115" width="110" height="10" rx="4" fill="#AFAFAF"/>
<rect x="16" y="140" width="65" height="10" rx="4" fill="#AFAFAF"/>
<rect x="16" y="155" width="98" height="10" rx="4" fill="#AFAFAF"/>
<rect x="16" y="170" width="79" height="10" rx="4" fill="#AFAFAF"/>
</g>
<defs>
<clipPath id="clip0_1_16">
<rect width="150" height="200" fill="white"/>
</clipPath>
</defs>
</svg>
