<svg width="170" height="220" viewBox="0 0 170 220" fill="none" xmlns="http://www.w3.org/2000/svg">
<path d="M10 8.5H8.5V10V210V211.5H10H160H161.5V210V33V32.3981L161.084 31.9632L139.084 8.96317L138.641 8.5H138H10Z" fill="#F2F2F2" stroke="black" stroke-width="3"/>
<rect x="26" y="30" width="100" height="15" rx="4" fill="#797979"/>
<rect x="26" y="55" width="83" height="10" rx="4" fill="#AFAFAF"/>
<path d="M138 10L160 33H138V10Z" fill="#AFAFAF"/>
<rect x="26" y="70" width="106" height="10" rx="4" fill="#AFAFAF"/>
<rect x="26" y="85" width="55" height="10" rx="4" fill="#AFAFAF"/>
<rect x="26" y="110" width="114" height="10" rx="4" fill="#AFAFAF"/>
<rect x="26" y="125" width="110" height="10" rx="4" fill="#AFAFAF"/>
<rect x="26" y="150" width="65" height="10" rx="4" fill="#AFAFAF"/>
<rect x="26" y="165" width="98" height="10" rx="4" fill="#AFAFAF"/>
<rect x="26" y="180" width="79" height="10" rx="4" fill="#AFAFAF"/>
</svg>
