<?xml version="1.0" encoding="UTF-8" standalone="no"?>
<svg
   width="150"
   height="150"
   viewBox="0 0 150 150"
   fill="none"
   version="1.1"
   id="svg17"
   sodipodi:docname="itan.svg"
   inkscape:version="1.1.1 (3bf5ae0d25, 2021-09-20)"
   xmlns:inkscape="http://www.inkscape.org/namespaces/inkscape"
   xmlns:sodipodi="http://sodipodi.sourceforge.net/DTD/sodipodi-0.dtd"
   xmlns="http://www.w3.org/2000/svg"
   xmlns:svg="http://www.w3.org/2000/svg">
  <sodipodi:namedview
     id="namedview19"
     pagecolor="#ffffff"
     bordercolor="#666666"
     borderopacity="1.0"
     inkscape:pageshadow="2"
     inkscape:pageopacity="0.0"
     inkscape:pagecheckerboard="0"
     showgrid="false"
     inkscape:zoom="2.876"
     inkscape:cx="98.574409"
     inkscape:cy="90.229485"
     inkscape:window-width="1920"
     inkscape:window-height="1009"
     inkscape:window-x="-8"
     inkscape:window-y="-8"
     inkscape:window-maximized="1"
     inkscape:current-layer="svg17" />
  <g
     clip-path="url(#clip0_414_95)"
     id="g10"
     transform="scale(0.15)">
    <path
       d="m 530,840 c 41.421,0 75,-33.579 75,-75 0,-41.421 -33.579,-75 -75,-75 -41.421,0 -75,33.579 -75,75 0,41.421 33.579,75 75,75 z"
       fill="#000000"
       id="path4" />
    <path
       fill-rule="evenodd"
       clip-rule="evenodd"
       d="m 400.553,162.5 c 20.71,0 37.5,16.789 37.5,37.5 v 91.947 h 185 V 200 c 0,-20.711 16.789,-37.5 37.5,-37.5 20.71,0 37.5,16.789 37.5,37.5 v 91.947 H 790 c 20.711,0 37.5,16.789 37.5,37.5 0,20.71 -16.789,37.5 -37.5,37.5 h -91.947 v 185 H 790 c 20.711,0 37.5,16.789 37.5,37.5 0,20.71 -16.789,37.5 -37.5,37.5 H 698.053 V 720 c 0,20.711 -16.79,37.5 -37.5,37.5 -20.711,0 -37.5,-16.789 -37.5,-37.5 v -93.053 h -185 V 720 c 0,20.711 -16.79,37.5 -37.5,37.5 -20.711,0 -37.5,-16.789 -37.5,-37.5 V 626.947 H 270 c -20.711,0 -37.5,-16.79 -37.5,-37.5 0,-20.711 16.789,-37.5 37.5,-37.5 h 93.053 v -185 H 270 c -20.711,0 -37.5,-16.79 -37.5,-37.5 0,-20.711 16.789,-37.5 37.5,-37.5 h 93.053 V 200 c 0,-20.711 16.789,-37.5 37.5,-37.5 z m 37.5,204.447 v 185 h 185 v -185 z"
       fill="#000000"
       id="path6" />
    <path
       fill-rule="evenodd"
       clip-rule="evenodd"
       d="M 0,500 C 0,637.35 55.381,761.764 145.031,852.132 H 79.9997 c -27.6142,0 -50,22.386 -50,50 0,27.614 22.3858,50 50,50 H 286.238 C 351.052,982.829 423.521,1000 500,1000 776.142,1000 1000,776.142 1000,500 1000,223.858 776.142,0 500,0 223.858,0 0,223.858 0,500 Z M 500,900 C 720.914,900 900,720.914 900,500 900,279.086 720.914,100 500,100 279.086,100 100,279.086 100,500 c 0,122.658 55.209,232.421 142.132,305.796 V 690 c 0,-27.614 22.386,-50 50,-50 27.614,0 50,22.386 50,50 V 867.641 C 390.565,888.466 443.935,900 500,900 Z"
       fill="#000000"
       id="path8" />
  </g>
  <defs
     id="defs15">
    <clipPath
       id="clip0_414_95">
      <rect
         width="1000"
         height="1000"
         fill="#ffffff"
         id="rect12"
         x="0"
         y="0" />
    </clipPath>
  </defs>
</svg>
