<svg
    xmlns="http://www.w3.org/2000/svg"
    id="music"
    x="0"
    y="0"
    width="150"
    height="200"
    version="1.1"
    viewBox="0 0 29 29"
    xml:space="preserve"
>
    <path
        d="M6.971 26.932h-1c-1.093 0-2.059-.434-2.719-1.22-.66-.787-.929-1.864-.736-2.954.378-2.146 2.36-3.826 4.514-3.826h2.518V5.803a3.01 3.01 0 0 1 2.801-2.994l11-.733a3.021 3.021 0 0 1 2.248.803c.604.565.951 1.364.951 2.191l-.01 14.369c-.001.22-.012.438-.053.668-.378 2.145-2.36 3.825-4.514 3.825h-1c-1.093 0-2.059-.434-2.719-1.22-.66-.787-.929-1.864-.736-2.954.378-2.146 2.36-3.826 4.514-3.826h2.518V11.07c0-.28-.112-.54-.317-.731a.985.985 0 0 0-.749-.267l-11 .733a1.004 1.004 0 0 0-.934.998v10.629c0 .089-.012.175-.033.257-.009.305-.02.361-.029.418-.38 2.144-2.362 3.825-4.515 3.825zm.058-6c-1.172 0-2.337.995-2.545 2.174-.09.514.017.982.3 1.321.273.325.695.505 1.187.505h1c1.172 0 2.337-.995 2.545-2.174-.003-.002.011-.293.02-1.826H7.029zm15-3c-1.172 0-2.337.995-2.545 2.174-.09.514.017.982.3 1.321.273.325.695.505 1.187.505h1c1.172 0 2.337-.995 2.545-2.174.02-.113.021-.223.021-.33l.007-1.496h-2.515zM12.48 4.805a1.004 1.004 0 0 0-.934.998v3.172c.253-.09.521-.147.801-.166l11-.733c.408-.023.817.031 1.199.166V5.069c0-.28-.112-.54-.317-.731a.989.989 0 0 0-.749-.267l-11 .734z"
    ></path>
</svg>